<svg width="32" height="32" viewBox="0 0 32 32" fill="none" xmlns="http://www.w3.org/2000/svg">
<path opacity="0.4" d="M24.8327 6.59194L18.1661 3.62898C16.7871 3.01609 15.2129 3.01609 13.8339 3.62898L7.16726 6.59195C5.24125 7.44795 4 9.35793 4 11.4656V20.5336C4 22.6413 5.24125 24.5513 7.16726 25.4073L13.8339 28.3703C15.2129 28.9831 16.7871 28.9831 18.1661 28.3703L24.8327 25.4073C26.7588 24.5513 28 22.6413 28 20.5336V11.4656C28 9.35793 26.7588 7.44795 24.8327 6.59194Z" fill="white"/>
<path d="M24.8348 6.59194L18.1681 3.62898C16.7891 3.01609 15.215 3.01609 13.836 3.62898L7.16934 6.59195C6.29453 6.98075 5.561 7.58699 5.02087 8.33042L16.0021 13.333L26.9833 8.33042C26.4431 7.58698 25.7096 6.98075 24.8348 6.59194Z" fill="white"/>
<path d="M16 9.66675C16.5523 9.66675 17 10.1145 17 10.6667L17 28.7358C16.3394 28.8619 15.6606 28.8619 15 28.7358V10.6667C15 10.1145 15.4477 9.66675 16 9.66675Z" fill="white"/>
</svg>
