<svg width="135" height="40" viewBox="0 0 135 40" fill="none" xmlns="http://www.w3.org/2000/svg">
<rect width="135" height="40" rx="8" fill="#F8F8F8"/>
<path d="M70.677 13.177C69.594 14.261 67.537 13.962 67.537 13.962C67.537 13.962 67.239 11.906 68.323 10.822C69.406 9.73899 71.463 10.038 71.463 10.038C71.463 10.038 71.761 12.093 70.677 13.177ZM59.5 22.06C59.5 25.341 61.696 29.11 63.919 29.907C64.689 30.183 65.486 29.802 66.148 29.327C66.65 28.967 67.258 28.624 67.75 28.624C68.24 28.624 68.85 28.967 69.351 29.327C70.013 29.802 70.81 30.183 71.581 29.907C73.16 29.341 74.726 27.274 75.5 24.947C74 24.517 72.906 23.161 72.906 21.554C72.906 20.082 73.825 18.82 75.132 18.289C74.29 16.793 72.914 16 71.359 16C70.555 16 69.815 16.324 69.219 16.713C68.265 17.333 67.234 17.333 66.281 16.713C65.684 16.324 64.945 16 64.141 16C61.577 16 59.5 18.155 59.5 22.06Z" stroke="#334158" stroke-width="1.5" stroke-linecap="round" stroke-linejoin="round"/>
</svg>
