<svg width="660" height="1024" viewBox="0 0 660 1024" fill="none" xmlns="http://www.w3.org/2000/svg">
<rect width="660" height="1024" fill="#F97699"/>
<path opacity="0.4" d="M258.833 462.592L252.166 459.629C250.787 459.016 249.213 459.016 247.834 459.629L241.167 462.592C239.241 463.448 238 465.358 238 467.466V476.534C238 478.641 239.241 480.551 241.167 481.407L247.834 484.37C249.213 484.983 250.787 484.983 252.166 484.37L258.833 481.407C260.759 480.551 262 478.641 262 476.534V467.466C262 465.358 260.759 463.448 258.833 462.592Z" fill="white"/>
<path d="M258.835 462.592L252.168 459.629C250.789 459.016 249.215 459.016 247.836 459.629L241.169 462.592C240.295 462.981 239.561 463.587 239.021 464.33L250.002 469.333L260.983 464.33C260.443 463.587 259.71 462.981 258.835 462.592Z" fill="white"/>
<path d="M250 465.667C250.552 465.667 251 466.114 251 466.667L251 484.736C250.339 484.862 249.661 484.862 249 484.736V466.667C249 466.114 249.448 465.667 250 465.667Z" fill="white"/>
<path d="M277.918 481V463.545H288.741V465.812H280.551V471.131H287.966V473.389H280.551V481H277.918ZM299.248 475.571V467.909H301.805V481H299.299V478.733H299.163C298.862 479.432 298.379 480.014 297.714 480.48C297.055 480.94 296.234 481.17 295.251 481.17C294.41 481.17 293.665 480.986 293.018 480.616C292.376 480.241 291.87 479.688 291.501 478.955C291.137 478.222 290.955 477.315 290.955 476.236V467.909H293.504V475.929C293.504 476.821 293.751 477.531 294.245 478.06C294.739 478.588 295.381 478.852 296.171 478.852C296.648 478.852 297.123 478.733 297.594 478.494C298.072 478.256 298.467 477.895 298.779 477.412C299.097 476.929 299.254 476.315 299.248 475.571ZM311.339 467.909V469.955H304.189V467.909H311.339ZM306.107 464.773H308.655V477.156C308.655 477.651 308.729 478.023 308.876 478.273C309.024 478.517 309.214 478.685 309.447 478.776C309.686 478.861 309.945 478.903 310.223 478.903C310.428 478.903 310.607 478.889 310.76 478.861C310.913 478.832 311.033 478.81 311.118 478.793L311.578 480.898C311.43 480.955 311.22 481.011 310.947 481.068C310.675 481.131 310.334 481.165 309.925 481.17C309.254 481.182 308.629 481.062 308.05 480.812C307.47 480.562 307.001 480.176 306.643 479.653C306.286 479.131 306.107 478.474 306.107 477.685V464.773ZM322.451 475.571V467.909H325.008V481H322.502V478.733H322.366C322.065 479.432 321.582 480.014 320.917 480.48C320.258 480.94 319.437 481.17 318.454 481.17C317.613 481.17 316.869 480.986 316.221 480.616C315.579 480.241 315.073 479.688 314.704 478.955C314.34 478.222 314.158 477.315 314.158 476.236V467.909H316.707V475.929C316.707 476.821 316.954 477.531 317.448 478.06C317.942 478.588 318.585 478.852 319.374 478.852C319.852 478.852 320.326 478.733 320.798 478.494C321.275 478.256 321.67 477.895 321.982 477.412C322.3 476.929 322.457 476.315 322.451 475.571ZM328.432 481V467.909H330.895V469.989H331.031C331.27 469.284 331.69 468.73 332.293 468.327C332.901 467.918 333.588 467.713 334.355 467.713C334.514 467.713 334.702 467.719 334.918 467.73C335.139 467.741 335.312 467.756 335.438 467.773V470.21C335.335 470.182 335.153 470.151 334.892 470.116C334.631 470.077 334.369 470.057 334.108 470.057C333.506 470.057 332.969 470.185 332.497 470.44C332.031 470.69 331.662 471.04 331.389 471.489C331.116 471.932 330.98 472.437 330.98 473.006V481H328.432ZM342.816 481.264C341.526 481.264 340.415 480.989 339.484 480.438C338.558 479.881 337.842 479.099 337.336 478.094C336.836 477.082 336.586 475.898 336.586 474.54C336.586 473.199 336.836 472.017 337.336 470.994C337.842 469.972 338.546 469.173 339.45 468.599C340.359 468.026 341.421 467.739 342.637 467.739C343.376 467.739 344.092 467.861 344.785 468.105C345.478 468.349 346.1 468.733 346.651 469.256C347.202 469.778 347.637 470.457 347.955 471.293C348.273 472.122 348.433 473.131 348.433 474.318V475.222H338.026V473.312H345.935C345.935 472.642 345.799 472.048 345.526 471.531C345.254 471.009 344.87 470.597 344.376 470.295C343.887 469.994 343.313 469.844 342.654 469.844C341.938 469.844 341.313 470.02 340.779 470.372C340.251 470.719 339.842 471.173 339.552 471.736C339.268 472.293 339.126 472.898 339.126 473.551V475.043C339.126 475.918 339.279 476.662 339.586 477.276C339.898 477.889 340.333 478.358 340.89 478.682C341.447 479 342.097 479.159 342.842 479.159C343.325 479.159 343.765 479.091 344.163 478.955C344.56 478.812 344.904 478.602 345.194 478.324C345.484 478.045 345.705 477.702 345.859 477.293L348.271 477.727C348.077 478.437 347.731 479.06 347.231 479.594C346.737 480.122 346.114 480.534 345.364 480.83C344.62 481.119 343.771 481.264 342.816 481.264Z" fill="white"/>
<path d="M351.464 463.545H354.661L360.217 477.114H360.422L365.979 463.545H369.175V481H366.669V468.369H366.507L361.359 480.974H359.28L354.132 468.361H353.97V481H351.464V463.545ZM378.441 481.264C377.151 481.264 376.04 480.989 375.109 480.438C374.183 479.881 373.467 479.099 372.961 478.094C372.461 477.082 372.211 475.898 372.211 474.54C372.211 473.199 372.461 472.017 372.961 470.994C373.467 469.972 374.171 469.173 375.075 468.599C375.984 468.026 377.046 467.739 378.262 467.739C379.001 467.739 379.717 467.861 380.41 468.105C381.103 468.349 381.725 468.733 382.276 469.256C382.827 469.778 383.262 470.457 383.58 471.293C383.898 472.122 384.058 473.131 384.058 474.318V475.222H373.651V473.312H381.56C381.56 472.642 381.424 472.048 381.151 471.531C380.879 471.009 380.495 470.597 380.001 470.295C379.512 469.994 378.938 469.844 378.279 469.844C377.563 469.844 376.938 470.02 376.404 470.372C375.876 470.719 375.467 471.173 375.177 471.736C374.893 472.293 374.751 472.898 374.751 473.551V475.043C374.751 475.918 374.904 476.662 375.211 477.276C375.523 477.889 375.958 478.358 376.515 478.682C377.072 479 377.722 479.159 378.467 479.159C378.95 479.159 379.39 479.091 379.788 478.955C380.185 478.812 380.529 478.602 380.819 478.324C381.109 478.045 381.33 477.702 381.484 477.293L383.896 477.727C383.702 478.437 383.356 479.06 382.856 479.594C382.362 480.122 381.739 480.534 380.989 480.83C380.245 481.119 379.396 481.264 378.441 481.264Z" fill="#334158"/>
</svg>
