<svg width="15" height="18" viewBox="0 0 15 18" fill="none" xmlns="http://www.w3.org/2000/svg">
<path fill-rule="evenodd" clip-rule="evenodd" d="M8.33395 1.49996C8.33395 1.03972 7.96086 0.666626 7.50062 0.666626C7.04038 0.666626 6.66728 1.03972 6.66728 1.49996V1.97568C3.84052 2.3799 1.66729 4.81015 1.66729 7.74905L1.66728 11.0827C1.66728 11.0827 1.66729 11.0826 1.66728 11.0827C1.6672 11.0843 1.66664 11.0955 1.66302 11.1173C1.65869 11.1436 1.65098 11.1793 1.63827 11.2252C1.6125 11.3183 1.57148 11.4342 1.51418 11.5712C1.39929 11.8459 1.23732 12.1622 1.05819 12.4813C0.721405 13.0812 0.551642 13.7961 0.679091 14.476C0.813494 15.193 1.27499 15.8182 2.06317 16.1183C2.76726 16.3864 3.70448 16.6315 4.94217 16.7775C4.97162 16.803 5.00644 16.8322 5.04645 16.8642C5.17169 16.9644 5.35062 17.0943 5.57675 17.2235C6.02556 17.48 6.68914 17.75 7.50062 17.75C8.3121 17.75 8.97568 17.48 9.42448 17.2235C9.65062 17.0943 9.82955 16.9644 9.95479 16.8642C9.99479 16.8322 10.0296 16.803 10.0591 16.7775C11.2968 16.6315 12.234 16.3864 12.9381 16.1183C13.7262 15.8182 14.1877 15.193 14.3221 14.476C14.4496 13.7961 14.2798 13.0812 13.943 12.4813C13.7639 12.1622 13.6019 11.8459 13.4871 11.5712C13.4298 11.4342 13.3887 11.3183 13.363 11.2252C13.3503 11.1793 13.3426 11.1436 13.3382 11.1173C13.3346 11.0955 13.334 11.0845 13.334 11.0829C13.334 11.0828 13.334 11.0829 13.334 11.0829L13.334 11.0759V7.74944C13.334 4.81062 11.1608 2.37997 8.33395 1.97569V1.49996ZM3.33395 7.74905C3.33395 5.44806 5.19923 3.58329 7.50062 3.58329C9.80192 3.58329 11.6673 5.44837 11.6673 7.74944V11.0833C11.6673 11.4691 11.8118 11.8852 11.9494 12.2142C12.0989 12.5717 12.2948 12.95 12.4897 13.2971C12.6792 13.6347 12.7244 13.9536 12.684 14.1689C12.6506 14.3471 12.5615 14.4783 12.345 14.5607C11.4493 14.9018 9.93722 15.25 7.50062 15.25C5.06401 15.25 3.55196 14.9018 2.65624 14.5607C2.43969 14.4783 2.35063 14.3471 2.31722 14.1689C2.27686 13.9536 2.32205 13.6347 2.51153 13.2971C2.7064 12.95 2.90231 12.5717 3.0518 12.2142C3.18941 11.8852 3.33395 11.4691 3.33395 11.0833V7.74905Z" fill="#344054"/>
</svg>
