<svg width="18" height="19" viewBox="0 0 18 19" fill="none" xmlns="http://www.w3.org/2000/svg">
<path fill-rule="evenodd" clip-rule="evenodd" d="M5.66602 0.833313C6.12625 0.833313 6.49935 1.20641 6.49935 1.66665V2.49998H11.4993V1.66665C11.4993 1.20641 11.8724 0.833313 12.3327 0.833313C12.7929 0.833313 13.166 1.20641 13.166 1.66665V2.49998H13.9993C15.8403 2.49998 17.3327 3.99236 17.3327 5.83331V15C17.3327 16.8409 15.8403 18.3333 13.9993 18.3333H3.99935C2.1584 18.3333 0.666016 16.8409 0.666016 15V5.83331C0.666016 3.99236 2.1584 2.49998 3.99935 2.49998H4.83268V1.66665C4.83268 1.20641 5.20578 0.833313 5.66602 0.833313ZM11.4993 4.16665C11.4993 4.62688 11.8724 4.99998 12.3327 4.99998C12.7929 4.99998 13.166 4.62688 13.166 4.16665H13.9993C14.9198 4.16665 15.666 4.91284 15.666 5.83331V6.24998H2.33268V5.83331C2.33268 4.91284 3.07887 4.16665 3.99935 4.16665H4.83268C4.83268 4.62688 5.20578 4.99998 5.66602 4.99998C6.12625 4.99998 6.49935 4.62688 6.49935 4.16665H11.4993ZM15.666 7.91665H2.33268V15C2.33268 15.9205 3.07887 16.6666 3.99935 16.6666H13.9993C14.9198 16.6666 15.666 15.9205 15.666 15V7.91665Z" fill="#667185"/>
</svg>
