<svg width="20" height="20" viewBox="0 0 20 20" fill="none" xmlns="http://www.w3.org/2000/svg">
<path fill-rule="evenodd" clip-rule="evenodd" d="M6.66602 0.833374C7.12625 0.833374 7.49935 1.20647 7.49935 1.66671V2.50004H12.4993V1.66671C12.4993 1.20647 12.8724 0.833374 13.3327 0.833374C13.7929 0.833374 14.166 1.20647 14.166 1.66671V2.50004H14.9993C16.8403 2.50004 18.3327 3.99242 18.3327 5.83337V15C18.3327 16.841 16.8403 18.3334 14.9993 18.3334H4.99935C3.1584 18.3334 1.66602 16.841 1.66602 15V5.83337C1.66602 3.99242 3.1584 2.50004 4.99935 2.50004H5.83268V1.66671C5.83268 1.20647 6.20578 0.833374 6.66602 0.833374ZM12.4993 4.16671C12.4993 4.62694 12.8724 5.00004 13.3327 5.00004C13.7929 5.00004 14.166 4.62694 14.166 4.16671H14.9993C15.9198 4.16671 16.666 4.9129 16.666 5.83337V6.25004H3.33268V5.83337C3.33268 4.9129 4.07887 4.16671 4.99935 4.16671H5.83268C5.83268 4.62694 6.20578 5.00004 6.66602 5.00004C7.12625 5.00004 7.49935 4.62694 7.49935 4.16671H12.4993ZM16.666 7.91671H3.33268V15C3.33268 15.9205 4.07887 16.6667 4.99935 16.6667H14.9993C15.9198 16.6667 16.666 15.9205 16.666 15V7.91671Z" fill="#344054"/>
</svg>
