<svg width="18" height="18" viewBox="0 0 18 18" fill="none" xmlns="http://www.w3.org/2000/svg">
<path d="M8.99935 6.08335C8.99935 5.62312 8.62625 5.25002 8.16602 5.25002C7.70578 5.25002 7.33268 5.62312 7.33268 6.08335V10.25C7.33268 10.7103 7.70578 11.0834 8.16602 11.0834H10.666C11.1263 11.0834 11.4993 10.7103 11.4993 10.25C11.4993 9.78978 11.1263 9.41669 10.666 9.41669H8.99935V6.08335Z" fill="#667185"/>
<path fill-rule="evenodd" clip-rule="evenodd" d="M8.99935 0.666687C4.39698 0.666687 0.666016 4.39765 0.666016 9.00002C0.666016 13.6024 4.39698 17.3334 8.99935 17.3334C13.6017 17.3334 17.3327 13.6024 17.3327 9.00002C17.3327 4.39765 13.6017 0.666687 8.99935 0.666687ZM2.33268 9.00002C2.33268 5.31812 5.31745 2.33335 8.99935 2.33335C12.6812 2.33335 15.666 5.31812 15.666 9.00002C15.666 12.6819 12.6812 15.6667 8.99935 15.6667C5.31745 15.6667 2.33268 12.6819 2.33268 9.00002Z" fill="#667185"/>
</svg>
