<svg width="40" height="40" viewBox="0 0 40 40" fill="none" xmlns="http://www.w3.org/2000/svg">
<path opacity="0.1" d="M19.9997 39.997C14.8133 40.0876 9.80136 38.1248 6.0558 34.5363C2.31023 30.9479 0.134632 26.0246 0.00303341 20.8391V20.0022C-0.0880345 14.8157 1.87457 9.80348 5.46314 6.05781C9.0517 2.31214 13.9753 0.136687 19.1609 0.00556941H19.9978C22.5632 -0.0556977 25.1154 0.389032 27.5088 1.31436C29.9023 2.23969 32.0899 3.62749 33.9469 5.39848C35.8038 7.16946 37.2937 9.28894 38.3314 11.6358C39.369 13.9827 39.9341 16.5111 39.9945 19.0764V20.0022C40.0631 22.5694 39.6235 25.1249 38.7008 27.5215C37.7782 29.9182 36.3907 32.1088 34.6183 33.9672C32.8459 35.8257 30.7235 37.3153 28.3732 38.3505C26.0229 39.3856 23.4912 39.9458 20.9236 39.9988L19.9997 39.997Z" fill="#FF1C2E"/>
<path d="M19.6559 9C17.9282 9.00067 16.2267 9.42122 14.6977 10.2254C13.1687 11.0297 11.858 12.1935 10.8786 13.6166C9.89917 15.0398 9.28032 16.6797 9.07532 18.3951C8.87032 20.1105 9.08531 21.85 9.70179 23.4639C10.3183 25.0778 11.3178 26.5176 12.6142 27.6595C13.9107 28.8014 15.4652 29.6111 17.144 30.0188C18.8228 30.4266 20.5756 30.4202 22.2514 30.0002C23.9272 29.5803 25.4758 28.7593 26.7639 27.608C25.5003 28.4559 24.0135 28.9097 22.4919 28.912C19.9519 28.912 17.6799 27.652 16.1519 25.664C14.9719 24.276 14.2079 22.22 14.1559 19.912V19.408C14.2079 17.1 14.9719 15.044 16.1479 13.652C17.6799 11.668 19.9519 10.412 22.4919 10.412C24.0519 10.412 25.5159 10.884 26.7639 11.716C24.8839 10.036 22.4119 9.012 19.6999 9H19.6599H19.6559Z" fill="url(#paint0_linear_234_557)"/>
<path d="M16.1484 13.6524C17.1284 12.5004 18.3884 11.8044 19.7724 11.8044C22.8764 11.8044 25.3924 15.3244 25.3924 19.6604C25.3924 24.0004 22.8764 27.5164 19.7724 27.5164C18.3924 27.5164 17.1324 26.8204 16.1524 25.6684C17.6804 27.6524 19.9524 28.9124 22.4924 28.9124C24.0524 28.9124 25.5164 28.4364 26.7644 27.6084C27.8841 26.6093 28.7798 25.3846 29.3927 24.0148C30.0055 22.645 30.3217 21.161 30.3204 19.6604C30.3204 16.5004 28.9484 13.6644 26.7684 11.7124C25.5051 10.8641 24.0182 10.4102 22.4964 10.4084C19.9564 10.4084 17.6844 11.6684 16.1564 13.6564" fill="url(#paint1_linear_234_557)"/>
<defs>
<linearGradient id="paint0_linear_234_557" x1="17.8799" y1="9.348" x2="17.8799" y2="30.008" gradientUnits="userSpaceOnUse">
<stop stop-color="#FF1B2D"/>
<stop offset="0.3" stop-color="#FF1B2D"/>
<stop offset="0.6" stop-color="#FF1B2D"/>
<stop offset="1" stop-color="#A70014"/>
</linearGradient>
<linearGradient id="paint1_linear_234_557" x1="23.2364" y1="10.5644" x2="23.2364" y2="28.8404" gradientUnits="userSpaceOnUse">
<stop stop-color="#9C0000"/>
<stop offset="0.7" stop-color="#FF4B4B"/>
<stop offset="1" stop-color="#FF4B4B"/>
</linearGradient>
</defs>
</svg>
