<svg width="40" height="40" viewBox="0 0 40 40" fill="none" xmlns="http://www.w3.org/2000/svg">
<path d="M0 20C0 8.95431 8.95431 0 20 0C31.0457 0 40 8.95431 40 20C40 31.0457 31.0457 40 20 40C8.95431 40 0 31.0457 0 20Z" fill="#FFEBCC"/>
<path d="M7 14.3677C7 13.0728 7.38911 11.9673 8.20569 11.1727L9.62581 12.5546C8.04521 14.0872 9.42557 18.852 13.9259 23.2355C18.4263 27.619 23.3257 28.9608 24.9049 27.4255L26.325 28.8075C23.6609 31.4 17.5927 29.5606 12.5129 24.6161C8.98959 21.1861 7 17.2946 7 14.3677Z" fill="#009A46"/>
<path d="M15.9547 30C14.624 30 13.4879 29.6213 12.6699 28.8267L14.09 27.4448C15.6678 28.9801 20.5644 27.6369 25.069 23.2548C29.5737 18.8727 30.9512 14.1078 29.3734 12.5725L30.7935 11.1906C33.4591 13.783 31.5675 19.688 26.4863 24.6312C22.9616 28.0653 18.9625 30 15.9547 30Z" fill="#FF5805"/>
<path d="M26.9572 22.6527C26.0951 20.2371 24.3342 17.6556 21.9981 15.3837C16.9183 10.4392 10.8501 8.59846 8.18596 11.1923C7.99708 11.3775 8.1604 11.8349 8.55235 12.2163C8.9443 12.5978 9.41437 12.7553 9.60324 12.5715C11.1824 11.0362 16.079 12.3794 20.5822 16.7629C22.7124 18.8358 24.3001 21.1505 25.0655 23.2925C25.7358 25.1705 25.6705 26.6851 24.8895 27.4452C24.6992 27.629 24.8639 28.0878 25.2544 28.4678C25.645 28.8479 26.1164 29.0082 26.3067 28.823C27.6715 27.4949 27.903 25.3004 26.9572 22.6527Z" fill="#F5AFCB"/>
<path d="M30.7907 11.1926C29.4232 9.86177 27.1709 9.63652 24.4471 10.5583C21.9661 11.3957 19.3119 13.1107 16.9772 15.3826C11.8974 20.3257 10.0058 26.2307 12.67 28.8246C12.8603 29.0084 13.3303 28.8495 13.7223 28.4694C14.1142 28.0894 14.2776 27.6306 14.0873 27.4454C12.5052 25.9101 13.8899 21.1452 18.3945 16.7617C20.5247 14.6888 22.9034 13.1439 25.1046 12.399C27.0345 11.7481 28.591 11.8103 29.3735 12.5704C29.5623 12.7541 30.0338 12.5952 30.4244 12.2138C30.8149 11.8324 30.9796 11.3764 30.7907 11.1926Z" fill="#FF9B00"/>
</svg>
