<svg width="135" height="40" viewBox="0 0 135 40" fill="none" xmlns="http://www.w3.org/2000/svg">
<rect width="135" height="40" rx="8" fill="#F8F8F8"/>
<path d="M68.5 17H73L72.5 19H68.5V28H66.5V19H62.5V17H66.5V15.128C66.5 13.345 66.686 12.698 67.034 12.046C67.375 11.4018 67.9018 10.875 68.546 10.534C69.198 10.186 69.845 10 71.628 10C72.15 10 72.608 10.05 73 10.15V12H71.628C70.304 12 69.901 12.078 69.489 12.298C69.1933 12.4525 68.9521 12.694 68.798 12.99C68.578 13.401 68.5 13.804 68.5 15.128V17Z" fill="#334158"/>
</svg>
