<svg width="20" height="20" viewBox="0 0 20 20" fill="none" xmlns="http://www.w3.org/2000/svg">
<path fill-rule="evenodd" clip-rule="evenodd" d="M4.40017 1.66669C2.89014 1.66669 1.66602 2.89081 1.66602 4.40084C1.66602 4.96181 1.83857 5.50921 2.16026 5.96877L7.19807 13.1656C7.39417 13.4458 7.49935 13.7795 7.49935 14.1214V15.9641C7.49935 17.6721 9.29682 18.783 10.8245 18.0191C11.851 17.5059 12.4993 16.4568 12.4993 15.3092V14.1214C12.4993 13.7795 12.6045 13.4458 12.8006 13.1656L17.8384 5.96877C18.1601 5.50921 18.3327 4.96181 18.3327 4.40084C18.3327 2.89081 17.1086 1.66669 15.5985 1.66669H4.40017ZM10.8327 15.3092C10.8327 15.8255 10.541 16.2975 10.0792 16.5284C9.65963 16.7382 9.16602 16.4331 9.16602 15.9641V14.1214C9.16602 13.4375 8.95565 12.7701 8.56346 12.2099L3.52565 5.013C3.40005 4.83358 3.33268 4.61986 3.33268 4.40084C3.33268 3.81128 3.81061 3.33335 4.40017 3.33335H15.5985C16.1881 3.33335 16.666 3.81128 16.666 4.40084C16.666 4.61986 16.5986 4.83358 16.473 5.013L11.4352 12.2099C11.043 12.7701 10.8327 13.4375 10.8327 14.1214V15.3092Z" fill="#F97699"/>
</svg>
