<svg width="135" height="40" viewBox="0 0 135 40" fill="none" xmlns="http://www.w3.org/2000/svg">
<rect width="135" height="40" rx="8" fill="#F8F8F8"/>
<g clip-path="url(#clip0_18_75)">
<path fill-rule="evenodd" clip-rule="evenodd" d="M67.5 13C66.1583 13.0003 64.845 13.3863 63.7164 14.1118C62.5878 14.8374 61.6915 15.872 61.1342 17.0924C60.5769 18.3129 60.3821 19.6678 60.573 20.9959C60.7639 22.3239 61.3324 23.5691 62.2109 24.5833C63.0894 25.5974 64.2408 26.3376 65.528 26.716C66.8153 27.0943 68.1841 27.0947 69.4716 26.7171C70.7591 26.3396 71.9109 25.6 72.79 24.5864C73.6691 23.5728 74.2383 22.3279 74.43 21H68.5C68.2348 21 67.9804 20.8946 67.7929 20.7071C67.6054 20.5196 67.5 20.2652 67.5 20C67.5 19.7348 67.6054 19.4804 67.7929 19.2929C67.9804 19.1054 68.2348 19 68.5 19H75.5C75.7652 19 76.0196 19.1054 76.2071 19.2929C76.3946 19.4804 76.5 19.7348 76.5 20C76.5002 22.0811 75.7792 24.098 74.4596 25.7074C73.14 27.3167 71.3035 28.419 69.2627 28.8266C67.2218 29.2342 65.1028 28.9219 63.2663 27.9429C61.4298 26.9639 59.9893 25.3787 59.1901 23.4571C58.3909 21.5356 58.2823 19.3964 58.8829 17.4038C59.4834 15.4112 60.7559 13.6883 62.4839 12.5283C64.2118 11.3684 66.2883 10.8432 68.36 11.042C70.4316 11.2409 72.3703 12.1516 73.846 13.619C74.0288 13.8071 74.1303 14.0594 74.1288 14.3217C74.1273 14.5839 74.0229 14.8351 73.8379 15.021C73.653 15.207 73.4025 15.3129 73.1402 15.3158C72.878 15.3188 72.6251 15.2187 72.436 15.037C71.7874 14.3899 71.0176 13.877 70.1707 13.5274C69.3237 13.1779 68.4162 12.9987 67.5 13Z" fill="#334158"/>
</g>
<defs>
<clipPath id="clip0_18_75">
<rect width="24" height="24" fill="white" transform="translate(55.5 8)"/>
</clipPath>
</defs>
</svg>
