<svg width="30" height="30" viewBox="0 0 30 30" fill="none" xmlns="http://www.w3.org/2000/svg">
<path d="M13.356 13.3634C14.0069 12.7126 14.0069 11.6573 13.356 11.0064C12.7051 10.3555 11.6498 10.3555 10.999 11.0064C10.3481 11.6573 10.3481 12.7126 10.999 13.3634C11.6498 14.0143 12.7051 14.0143 13.356 13.3634Z" fill="#F56630"/>
<path d="M19.0129 16.6633C19.6638 17.3142 19.6638 18.3695 19.0129 19.0203C18.362 19.6712 17.3067 19.6712 16.6559 19.0203C16.005 18.3695 16.005 17.3142 16.6559 16.6633C17.3067 16.0124 18.362 16.0124 19.0129 16.6633Z" fill="#F56630"/>
<path d="M11.2299 16.8857C10.7092 17.4064 10.7092 18.2506 11.2299 18.7713C11.7506 19.292 12.5948 19.292 13.1155 18.7713L18.7723 13.1144C19.293 12.5937 19.293 11.7495 18.7723 11.2288C18.2516 10.7081 17.4074 10.7081 16.8867 11.2288L11.2299 16.8857Z" fill="#F56630"/>
<path fill-rule="evenodd" clip-rule="evenodd" d="M18.3369 1.70522C16.477 -0.094042 13.5253 -0.094042 11.6654 1.70522C11.193 2.16222 10.5361 2.37565 9.88532 2.2836C7.32305 1.92118 4.93507 3.65615 4.48797 6.205C4.3744 6.8524 3.96844 7.41116 3.38783 7.71922C1.10189 8.93208 0.189759 11.7393 1.32622 14.0642C1.61488 14.6547 1.61488 15.3454 1.32622 15.9359C0.189759 18.2607 1.10189 21.068 3.38783 22.2808C3.96844 22.5889 4.3744 23.1476 4.48797 23.795C4.93507 26.3439 7.32305 28.0789 9.88532 27.7164C10.5361 27.6244 11.193 27.8378 11.6654 28.2948C13.5253 30.0941 16.477 30.0941 18.3369 28.2948C18.8093 27.8378 19.4661 27.6244 20.1169 27.7164C22.6792 28.0789 25.0672 26.3439 25.5143 23.795C25.6278 23.1476 26.0338 22.5889 26.6144 22.2808C28.9004 21.068 29.8125 18.2607 28.676 15.9359C28.3874 15.3454 28.3874 14.6547 28.676 14.0642C29.8125 11.7393 28.9004 8.93208 26.6144 7.71922C26.0338 7.41116 25.6278 6.8524 25.5143 6.205C25.0672 3.65615 22.6792 1.92118 20.1169 2.2836C19.4661 2.37565 18.8093 2.16222 18.3369 1.70522ZM13.5195 3.62182C14.3456 2.82265 15.6567 2.82265 16.4828 3.62182C17.5463 4.65072 19.0252 5.13123 20.4904 4.92398C21.6285 4.76301 22.6891 5.53363 22.8877 6.66574C23.1434 8.12329 24.0574 9.38128 25.3646 10.0749C26.3799 10.6136 26.7851 11.8604 26.2803 12.8931C25.6304 14.2225 25.6304 15.7775 26.2803 17.107C26.7851 18.1396 26.3799 19.3865 25.3646 19.9252C24.0574 20.6188 23.1434 21.8768 22.8877 23.3343C22.6891 24.4664 21.6285 25.237 20.4904 25.0761C19.0252 24.8688 17.5463 25.3493 16.4828 26.3782C15.6567 27.1774 14.3456 27.1774 13.5195 26.3782C12.4559 25.3493 10.9771 24.8688 9.51185 25.0761C8.37378 25.237 7.31312 24.4664 7.11453 23.3343C6.85885 21.8768 5.94487 20.6188 4.63766 19.9252C3.62233 19.3865 3.21719 18.1396 3.72197 17.107C4.37185 15.7775 4.37185 14.2225 3.72197 12.8931C3.21719 11.8604 3.62233 10.6136 4.63766 10.0749C5.94487 9.38128 6.85885 8.12329 7.11453 6.66574C7.31312 5.53363 8.37378 4.76301 9.51185 4.92398C10.9771 5.13123 12.4559 4.65072 13.5195 3.62182Z" fill="#F56630"/>
</svg>
