<svg width="32" height="32" viewBox="0 0 32 32" fill="none" xmlns="http://www.w3.org/2000/svg">
<path d="M26.3722 5.6292C23.7687 3.0257 19.5476 3.0257 16.9441 5.6292L13.1728 9.40043C12.6521 9.92113 12.6521 10.7654 13.1728 11.2861C13.6935 11.8067 14.5377 11.8067 15.0584 11.2861L18.8297 7.51481C20.3918 5.95272 22.9244 5.95272 24.4865 7.51481C26.0486 9.07691 26.0486 11.6096 24.4865 13.1717L20.7153 16.9429C20.1946 17.4636 20.1946 18.3078 20.7153 18.8285C21.236 19.3492 22.0802 19.3492 22.6009 18.8285L26.3722 15.0573C28.9757 12.4538 28.9757 8.23269 26.3722 5.6292Z" fill="#F5B546"/>
<path d="M18.8297 15.0573C19.3504 14.5366 19.3504 13.6924 18.8297 13.1717C18.309 12.651 17.4648 12.651 16.9441 13.1717L13.1728 16.9429C12.6521 17.4636 12.6521 18.3078 13.1728 18.8285C13.6935 19.3492 14.5377 19.3492 15.0584 18.8285L18.8297 15.0573Z" fill="#F5B546"/>
<path d="M11.2872 15.0573C11.8079 14.5366 11.8079 13.6924 11.2872 13.1717C10.7665 12.651 9.92229 12.651 9.40159 13.1717L5.63036 16.9429C3.02686 19.5464 3.02686 23.7675 5.63036 26.371C8.23385 28.9745 12.455 28.9745 15.0584 26.371L18.8297 22.5998C19.3504 22.0791 19.3504 21.2348 18.8297 20.7141C18.309 20.1934 17.4648 20.1934 16.9441 20.7141L13.1728 24.4854C11.6107 26.0475 9.07807 26.0475 7.51597 24.4854C5.95388 22.9233 5.95388 20.3906 7.51597 18.8285L11.2872 15.0573Z" fill="#F5B546"/>
</svg>
