<svg width="32" height="32" viewBox="0 0 32 32" fill="none" xmlns="http://www.w3.org/2000/svg">
<path d="M10.6667 7.99998C9.93029 7.99998 9.33333 8.59693 9.33333 9.33331C9.33333 10.0697 9.93029 10.6666 10.6667 10.6666H21.3333C22.0697 10.6666 22.6667 10.0697 22.6667 9.33331C22.6667 8.59693 22.0697 7.99998 21.3333 7.99998H10.6667Z" fill="#0F973D"/>
<path d="M9.33333 16C9.33333 15.2636 9.93029 14.6666 10.6667 14.6666H21.3333C22.0697 14.6666 22.6667 15.2636 22.6667 16C22.6667 16.7364 22.0697 17.3333 21.3333 17.3333H10.6667C9.93029 17.3333 9.33333 16.7364 9.33333 16Z" fill="#0F973D"/>
<path d="M10.6667 21.3333C9.93029 21.3333 9.33333 21.9303 9.33333 22.6666C9.33333 23.403 9.93029 24 10.6667 24H14.2222C14.9586 24 15.5556 23.403 15.5556 22.6666C15.5556 21.9303 14.9586 21.3333 14.2222 21.3333H10.6667Z" fill="#0F973D"/>
<path d="M17.7778 21.3333C17.0414 21.3333 16.4444 21.9303 16.4444 22.6666C16.4444 23.403 17.0414 24 17.7778 24H21.3333C22.0697 24 22.6667 23.403 22.6667 22.6666C22.6667 21.9303 22.0697 21.3333 21.3333 21.3333H17.7778Z" fill="#0F973D"/>
<path fill-rule="evenodd" clip-rule="evenodd" d="M20.6424 29.2016C20.7923 29.2391 20.9377 29.2929 21.0759 29.362C24.2571 30.9526 28 28.6393 28 25.0826V6.66665C28 3.72113 25.6122 1.33331 22.6667 1.33331H9.33333C6.38781 1.33331 4 3.72113 4 6.66665V25.0826C4 28.6393 7.74293 30.9526 10.9241 29.362C11.0623 29.2929 11.2077 29.2391 11.3576 29.2016L15.3532 28.2027C15.7779 28.0965 16.2221 28.0965 16.6468 28.2027L20.6424 29.2016ZM6.66667 6.66665C6.66667 5.19389 7.86057 3.99998 9.33333 3.99998H22.6667C24.1394 3.99998 25.3333 5.19389 25.3333 6.66665V25.0826C25.3333 26.6569 23.6766 27.6809 22.2685 26.9768C21.9562 26.8207 21.6279 26.6992 21.2892 26.6146L17.2935 25.6157C16.4442 25.4033 15.5558 25.4033 14.7065 25.6157L10.7108 26.6146C10.3721 26.6992 10.0438 26.8207 9.73154 26.9768C8.32343 27.6809 6.66667 26.6569 6.66667 25.0826V6.66665Z" fill="#0F973D"/>
</svg>
