<svg width="24" height="24" viewBox="0 0 24 24" fill="none" xmlns="http://www.w3.org/2000/svg">
<path d="M13.0418 2.33698C13.3259 2.33698 13.5801 2.51381 13.6757 2.77857L14.3579 4.6696C14.6024 4.73048 14.8121 4.79136 14.9899 4.85513C15.1841 4.9247 15.4344 5.03003 15.7436 5.17401L17.3322 4.33333C17.4618 4.26464 17.6103 4.23984 17.7552 4.26266C17.9002 4.28549 18.0338 4.3547 18.1361 4.45992L19.5334 5.90452C19.7189 6.09682 19.7711 6.37801 19.6667 6.62344L18.9217 8.36953C19.0454 8.59661 19.144 8.79084 19.2193 8.95317C19.3005 9.13 19.401 9.37351 19.5208 9.68755L21.2573 10.4316C21.5182 10.5427 21.6795 10.8036 21.6621 11.0829L21.5346 13.0879C21.5259 13.2182 21.4791 13.343 21.4001 13.4469C21.3211 13.5509 21.2133 13.6293 21.0901 13.6725L19.4455 14.2571C19.3981 14.4842 19.3488 14.6784 19.2966 14.8427C19.2125 15.0964 19.1164 15.346 19.0087 15.5906L19.8349 17.4169C19.8932 17.5452 19.9089 17.6889 19.8797 17.8267C19.8505 17.9646 19.7779 18.0895 19.6725 18.1832L18.1013 19.5862C17.9979 19.6783 17.8687 19.7364 17.7313 19.753C17.5938 19.7696 17.4546 19.7438 17.3322 19.679L15.7127 18.8209C15.4593 18.9551 15.1979 19.0735 14.93 19.1756L14.2227 19.4403L13.5946 21.1797C13.548 21.307 13.4641 21.4174 13.3537 21.4962C13.2433 21.575 13.1117 21.6186 12.9761 21.6213L11.1402 21.6628C11.001 21.6665 10.8641 21.6269 10.7483 21.5495C10.6326 21.4722 10.5436 21.3609 10.4937 21.2309L9.75355 19.2722C9.50101 19.1859 9.25096 19.0924 9.00371 18.992C8.80148 18.9044 8.60231 18.81 8.40654 18.7088L6.57059 19.4935C6.44962 19.5451 6.31625 19.5604 6.18672 19.5376C6.0572 19.5148 5.9371 19.4548 5.84104 19.365L4.48244 18.0904C4.38129 17.9959 4.3124 17.8721 4.28552 17.7363C4.25864 17.6005 4.27513 17.4597 4.33266 17.3338L5.12212 15.6138C5.01713 15.4101 4.91979 15.2025 4.8303 14.9915C4.72585 14.7333 4.62917 14.4719 4.54041 14.2079L2.81075 13.6812C2.67016 13.6387 2.54753 13.551 2.46191 13.4317C2.37629 13.3123 2.33248 13.1681 2.33727 13.0213L2.40491 11.165C2.40972 11.0439 2.44756 10.9264 2.51432 10.8252C2.58108 10.7241 2.67423 10.6431 2.7837 10.591L4.59839 9.71944C4.68246 9.41119 4.7559 9.17155 4.82064 8.99666C4.9118 8.76305 5.01303 8.5335 5.12405 8.30866L4.33749 6.64664C4.2778 6.52042 4.25967 6.37853 4.28572 6.24136C4.31176 6.10419 4.38064 5.97882 4.48244 5.88327L5.83911 4.60196C5.93421 4.51227 6.05321 4.45196 6.18178 4.4283C6.31035 4.40464 6.44302 4.41864 6.56383 4.46862L8.39785 5.22619C8.60077 5.09091 8.78436 4.98172 8.95057 4.89378C9.14866 4.78846 9.41342 4.6783 9.74679 4.55945L10.3845 2.7805C10.4317 2.65031 10.5179 2.53785 10.6313 2.45847C10.7448 2.37909 10.88 2.33666 11.0184 2.33698H13.0418ZM12.0234 9.11937C10.4126 9.11937 9.10711 10.4094 9.10711 12.0018C9.10711 13.5943 10.4126 14.8852 12.0234 14.8852C13.6332 14.8852 14.9387 13.5943 14.9387 12.0018C14.9387 10.4094 13.6342 9.11937 12.0234 9.11937Z" fill="#676F82"/>
</svg>
