<svg width="24" height="24" viewBox="0 0 24 24" fill="none" xmlns="http://www.w3.org/2000/svg">
<path fill-rule="evenodd" clip-rule="evenodd" d="M18.569 3.20148C19.3156 3.20148 20.0317 3.49808 20.5596 4.02603C21.0876 4.55398 21.3842 5.27003 21.3842 6.01667V15.4006C21.3842 16.1473 21.0876 16.8633 20.5596 17.3913C20.0317 17.9192 19.3156 18.2158 18.569 18.2158H7.62068L4.49301 20.5618C3.71977 21.1418 2.61621 20.59 2.61621 19.6234V6.01667C2.61621 5.27003 2.91281 4.55398 3.44076 4.02603C3.96871 3.49808 4.68477 3.20148 5.4314 3.20148H18.569ZM11.0618 11.6471H8.24659C7.99772 11.6471 7.75903 11.7459 7.58305 11.9219C7.40706 12.0979 7.3082 12.3366 7.3082 12.5854C7.3082 12.8343 7.40706 13.073 7.58305 13.249C7.75903 13.425 7.99772 13.5238 8.24659 13.5238H11.0618C11.3107 13.5238 11.5493 13.425 11.7253 13.249C11.9013 13.073 12.0002 12.8343 12.0002 12.5854C12.0002 12.3366 11.9013 12.0979 11.7253 11.9219C11.5493 11.7459 11.3107 11.6471 11.0618 11.6471ZM15.7538 7.89346H8.24659C8.00742 7.89373 7.77737 7.98531 7.60345 8.1495C7.42953 8.31369 7.32487 8.5381 7.31085 8.77687C7.29683 9.01563 7.37452 9.25074 7.52803 9.43415C7.68154 9.61757 7.8993 9.73544 8.1368 9.76369L8.24659 9.77026H15.7538C15.993 9.76999 16.223 9.67841 16.3969 9.51422C16.5708 9.35003 16.6755 9.12562 16.6895 8.88686C16.7035 8.64809 16.6258 8.41298 16.4723 8.22957C16.3188 8.04615 16.1011 7.92828 15.8636 7.90003L15.7538 7.89346Z" fill="#676F82"/>
</svg>
