<svg width="24" height="24" viewBox="0 0 24 24" fill="none" xmlns="http://www.w3.org/2000/svg">
<path d="M5.56269 4.84729C4.61418 4.84729 3.70452 5.22408 3.03382 5.89478C2.36312 6.56548 1.98633 7.47514 1.98633 8.42365V9.13893H22.014V8.42365C22.014 7.47514 21.6372 6.56548 20.9665 5.89478C20.2958 5.22408 19.3861 4.84729 18.4376 4.84729H5.56269ZM22.014 10.5695H1.98633V15.5764C1.98633 16.5249 2.36312 17.4346 3.03382 18.1053C3.70452 18.776 4.61418 19.1527 5.56269 19.1527H18.4376C19.3861 19.1527 20.2958 18.776 20.9665 18.1053C21.6372 17.4346 22.014 16.5249 22.014 15.5764V10.5695ZM15.5765 14.8611H18.4376C18.6273 14.8611 18.8092 14.9365 18.9434 15.0706C19.0775 15.2047 19.1529 15.3867 19.1529 15.5764C19.1529 15.7661 19.0775 15.948 18.9434 16.0822C18.8092 16.2163 18.6273 16.2917 18.4376 16.2917H15.5765C15.3868 16.2917 15.2049 16.2163 15.0707 16.0822C14.9366 15.948 14.8612 15.7661 14.8612 15.5764C14.8612 15.3867 14.9366 15.2047 15.0707 15.0706C15.2049 14.9365 15.3868 14.8611 15.5765 14.8611Z" fill="#676F82"/>
</svg>
