<svg width="24" height="24" viewBox="0 0 24 24" fill="none" xmlns="http://www.w3.org/2000/svg">
<path d="M6.15 7.5C5.79196 7.5 5.44858 7.35777 5.19541 7.10459C4.94223 6.85142 4.8 6.50804 4.8 6.15C4.8 5.79196 4.94223 5.44858 5.19541 5.19541C5.44858 4.94223 5.79196 4.8 6.15 4.8C6.50804 4.8 6.85142 4.94223 7.10459 5.19541C7.35777 5.44858 7.5 5.79196 7.5 6.15C7.5 6.50804 7.35777 6.85142 7.10459 7.10459C6.85142 7.35777 6.50804 7.5 6.15 7.5ZM20.469 11.622L12.369 3.522C12.045 3.198 11.595 3 11.1 3H4.8C3.801 3 3 3.801 3 4.8V11.1C3 11.595 3.198 12.045 3.531 12.369L11.622 20.469C11.955 20.793 12.405 21 12.9 21C13.395 21 13.845 20.793 14.169 20.469L20.469 14.169C20.802 13.845 21 13.395 21 12.9C21 12.396 20.793 11.946 20.469 11.622Z" fill="#676F82"/>
</svg>
