<svg width="24" height="24" viewBox="0 0 24 24" fill="none" xmlns="http://www.w3.org/2000/svg">
<path d="M4.2204 10.9085C5.4464 10.9085 6.44317 9.92953 6.44317 8.72542C6.44317 7.52131 5.4464 6.54234 4.2204 6.54234C2.9944 6.54234 1.99762 7.52131 1.99762 8.72542C1.99762 9.92953 2.9944 10.9085 4.2204 10.9085ZM19.7798 10.9085C21.0058 10.9085 22.0026 9.92953 22.0026 8.72542C22.0026 7.52131 21.0058 6.54234 19.7798 6.54234C18.5538 6.54234 17.5571 7.52131 17.5571 8.72542C17.5571 9.92953 18.5538 10.9085 19.7798 10.9085ZM20.8912 12H18.6684C18.0572 12 17.505 12.2422 17.1021 12.6345C18.5017 13.3884 19.495 14.7494 19.7104 16.3662H22.0026C22.6173 16.3662 23.114 15.8784 23.114 15.2747V14.1831C23.114 12.979 22.1172 12 20.8912 12ZM12.0001 12C14.15 12 15.89 10.2911 15.89 8.17965C15.89 6.0682 14.15 4.35925 12.0001 4.35925C9.85027 4.35925 8.11026 6.0682 8.11026 8.17965C8.11026 10.2911 9.85027 12 12.0001 12ZM14.6674 13.0916H14.3792C13.6568 13.4327 12.8545 13.6374 12.0001 13.6374C11.1457 13.6374 10.3469 13.4327 9.62105 13.0916H9.33278C7.1239 13.0916 5.33178 14.8517 5.33178 17.0211V18.0035C5.33178 18.9075 6.0785 19.6408 6.99887 19.6408H17.0014C17.9217 19.6408 18.6684 18.9075 18.6684 18.0035V17.0211C18.6684 14.8517 16.8763 13.0916 14.6674 13.0916ZM6.89815 12.6345C6.49527 12.2422 5.94305 12 5.33178 12H3.10901C1.88301 12 0.88623 12.979 0.88623 14.1831V15.2747C0.88623 15.8784 1.38288 16.3662 1.99762 16.3662H4.28638C4.50519 14.7494 5.49849 13.3884 6.89815 12.6345Z" fill="#676F82"/>
</svg>
