<svg width="24" height="24" viewBox="0 0 24 24" fill="none" xmlns="http://www.w3.org/2000/svg">
<path d="M4.60679 12.9241H10.1518C10.6601 12.9241 11.076 12.5082 11.076 11.9999V4.60655C11.076 4.09825 10.6601 3.68237 10.1518 3.68237H4.60679C4.0985 3.68237 3.68262 4.09825 3.68262 4.60655V11.9999C3.68262 12.5082 4.0985 12.9241 4.60679 12.9241ZM4.60679 20.3175H10.1518C10.6601 20.3175 11.076 19.9016 11.076 19.3933V15.6966C11.076 15.1883 10.6601 14.7725 10.1518 14.7725H4.60679C4.0985 14.7725 3.68262 15.1883 3.68262 15.6966V19.3933C3.68262 19.9016 4.0985 20.3175 4.60679 20.3175ZM13.8485 20.3175H19.3936C19.9019 20.3175 20.3177 19.9016 20.3177 19.3933V11.9999C20.3177 11.4916 19.9019 11.0758 19.3936 11.0758H13.8485C13.3402 11.0758 12.9244 11.4916 12.9244 11.9999V19.3933C12.9244 19.9016 13.3402 20.3175 13.8485 20.3175ZM12.9244 4.60655V8.30324C12.9244 8.81154 13.3402 9.22742 13.8485 9.22742H19.3936C19.9019 9.22742 20.3177 8.81154 20.3177 8.30324V4.60655C20.3177 4.09825 19.9019 3.68237 19.3936 3.68237H13.8485C13.3402 3.68237 12.9244 4.09825 12.9244 4.60655Z" fill="#676F82"/>
</svg>
